<svg width="100" height="100" viewBox="0 0 100 100" fill="none" xmlns="http://www.w3.org/2000/svg">
<path d="M25.971 24.308L27.8252 15.033C28.2029 13.1432 29.224 11.4427 30.7145 10.2211C32.2051 8.99947 34.073 8.33225 36.0002 8.33301H64.0002C65.9274 8.33225 67.7953 8.99947 69.2858 10.2211C70.7764 11.4427 71.7974 13.1432 72.1752 15.033L74.0293 24.308C74.3204 25.7613 75.018 27.1021 76.041 28.1746C77.0641 29.2471 78.3705 30.0071 79.8085 30.3663C83.196 31.2138 86.203 33.1692 88.3516 35.9218C90.5003 38.6743 91.6671 42.0661 91.6668 45.558V74.9997C91.6668 79.42 89.9109 83.6592 86.7853 86.7848C83.6597 89.9104 79.4204 91.6663 75.0002 91.6663H25.0002C20.5799 91.6663 16.3407 89.9104 13.215 86.7848C10.0894 83.6592 8.3335 79.42 8.3335 74.9997V45.558C8.33318 42.0661 9.50006 38.6743 11.6487 35.9218C13.7973 33.1692 16.8043 31.2138 20.1918 30.3663C21.6298 30.0071 22.9363 29.2471 23.9593 28.1746C24.9823 27.1021 25.6799 25.7613 25.971 24.308V24.308Z" stroke="white" stroke-width="9.83333" stroke-linecap="round" stroke-linejoin="round"/>
<path d="M50.0002 74.9998C59.2049 74.9998 66.6668 67.5379 66.6668 58.3332C66.6668 49.1284 59.2049 41.6665 50.0002 41.6665C40.7954 41.6665 33.3335 49.1284 33.3335 58.3332C33.3335 67.5379 40.7954 74.9998 50.0002 74.9998Z" stroke="white" stroke-width="9.83333" stroke-linecap="round" stroke-linejoin="round"/>
<path d="M45.8335 24.9995H54.1668" stroke="white" stroke-width="9.83333" stroke-linecap="round" stroke-linejoin="round"/>
</svg>
