<svg width="80" height="20" viewBox="0 0 80 20" fill="none" xmlns="http://www.w3.org/2000/svg">
<path d="M6.06649 15.485C4.99515 15.485 4.02759 15.2977 3.16382 14.9231C2.30674 14.5418 1.60032 14 1.04456 13.2977C0.495497 12.5886 0.14731 11.7458 0 10.7692L2.85246 10.3478C3.05333 11.1773 3.46848 11.8161 4.0979 12.2642C4.72731 12.7124 5.44377 12.9365 6.24728 12.9365C6.69591 12.9365 7.13114 12.8662 7.55299 12.7258C7.97483 12.5853 8.31967 12.3779 8.58751 12.1037C8.86204 11.8294 8.9993 11.4916 8.9993 11.0903C8.9993 10.9431 8.97587 10.8027 8.929 10.6689C8.88882 10.5284 8.81851 10.398 8.71807 10.2776C8.61764 10.1572 8.47367 10.0435 8.28619 9.93646C8.1054 9.82943 7.87439 9.73244 7.59316 9.64549L3.83676 8.54181C3.55553 8.46154 3.22743 8.34783 2.85246 8.20067C2.48418 8.05351 2.12595 7.84281 1.77776 7.56856C1.42958 7.29431 1.1383 6.93311 0.903948 6.48495C0.676287 6.0301 0.562456 5.45819 0.562456 4.76923C0.562456 3.79933 0.806857 2.99331 1.29566 2.35117C1.78446 1.70903 2.43731 1.23077 3.25421 0.916389C4.07111 0.602007 4.97506 0.448161 5.96606 0.45485C6.96375 0.468228 7.8543 0.638797 8.63772 0.966556C9.42115 1.29432 10.0773 1.77258 10.6063 2.40134C11.1353 3.02341 11.517 3.78595 11.7513 4.68896L8.79842 5.19064C8.69129 4.72241 8.49376 4.32776 8.20584 4.00669C7.91791 3.68562 7.57307 3.44147 7.17132 3.27425C6.77626 3.10702 6.36111 3.01672 5.92588 3.00335C5.49734 2.98997 5.09224 3.05017 4.71057 3.18395C4.3356 3.31104 4.02759 3.49833 3.78654 3.74582C3.55218 3.99331 3.435 4.28763 3.435 4.62876C3.435 4.94315 3.53209 5.20067 3.72627 5.40134C3.92046 5.59532 4.16486 5.75251 4.45948 5.87291C4.7541 5.99331 5.05541 6.09365 5.36342 6.17391L7.87439 6.85619C8.24936 6.95652 8.66451 7.0903 9.11983 7.25753C9.57515 7.41806 10.0104 7.64549 10.4255 7.9398C10.8474 8.22743 11.1922 8.6087 11.46 9.08361C11.7346 9.55853 11.8718 10.1605 11.8718 10.8896C11.8718 11.6656 11.7078 12.3445 11.3797 12.9264C11.0583 13.5017 10.6231 13.9799 10.074 14.3612C9.52493 14.7358 8.90221 15.0167 8.20584 15.204C7.51616 15.3913 6.80304 15.485 6.06649 15.485Z" fill="url(#paint0_linear_65_112)"/>
<path d="M19.4027 15.485C18.3247 15.485 17.4241 15.2341 16.7009 14.7324C15.9777 14.2308 15.432 13.5485 15.0638 12.6856C14.7022 11.8227 14.5214 10.8495 14.5214 9.76589C14.5214 8.68228 14.7022 7.70903 15.0638 6.84616C15.4253 5.98328 15.9577 5.301 16.6607 4.79933C17.3638 4.29766 18.2309 4.04682 19.2621 4.04682C20.3 4.04682 21.2039 4.29432 21.9739 4.7893C22.744 5.28428 23.3399 5.96321 23.7617 6.82609C24.1903 7.68228 24.4046 8.66221 24.4046 9.76589C24.4046 10.8495 24.1936 11.8227 23.7718 12.6856C23.3566 13.5485 22.7741 14.2308 22.0242 14.7324C21.2742 15.2341 20.4004 15.485 19.4027 15.485ZM14.0594 20V4.34783H16.4699V11.7726H16.8114V20H14.0594ZM18.9608 13.0569C19.55 13.0569 20.0321 12.9097 20.4071 12.6154C20.7821 12.3211 21.0599 11.9264 21.2407 11.4314C21.4215 10.9298 21.5119 10.3746 21.5119 9.76589C21.5119 9.16388 21.4182 8.61539 21.2307 8.1204C21.0432 7.61873 20.7519 7.22074 20.3569 6.92642C19.9685 6.62542 19.4697 6.47492 18.8603 6.47492C18.2912 6.47492 17.8292 6.61204 17.4743 6.88629C17.1261 7.16054 16.8717 7.54515 16.7109 8.04013C16.5502 8.53512 16.4699 9.11037 16.4699 9.76589C16.4699 10.4214 16.5502 10.9967 16.7109 11.4916C16.8717 11.9866 17.1328 12.3712 17.4944 12.6455C17.8626 12.9197 18.3514 13.0569 18.9608 13.0569Z" fill="url(#paint1_linear_65_112)"/>
<path d="M26.8155 2.84281V0.434784H29.5475V2.84281H26.8155ZM26.8155 15.1839V4.34783H29.5475V15.1839H26.8155Z" fill="url(#paint2_linear_65_112)"/>
<path d="M39.9509 15.1839V10.0669C39.9509 9.8194 39.9375 9.50502 39.9107 9.12375C39.8839 8.73579 39.8002 8.34783 39.6596 7.95987C39.519 7.57191 39.288 7.24749 38.9666 6.98662C38.6519 6.72575 38.2033 6.59532 37.6207 6.59532C37.3863 6.59532 37.1353 6.63211 36.8674 6.70569C36.5996 6.77926 36.3485 6.92308 36.1141 7.13712C35.8798 7.34448 35.6856 7.65217 35.5316 8.0602C35.3843 8.46823 35.3106 9.01003 35.3106 9.68562L33.7438 8.94314C33.7438 8.08696 33.9179 7.28428 34.2661 6.53512C34.6142 5.78595 35.1365 5.1806 35.8329 4.71906C36.536 4.25753 37.4198 4.02676 38.4845 4.02676C39.3349 4.02676 40.0279 4.17057 40.5636 4.4582C41.0992 4.74582 41.5144 5.11037 41.809 5.55184C42.1103 5.99331 42.3246 6.45485 42.4518 6.93646C42.579 7.41137 42.656 7.84615 42.6828 8.2408C42.7096 8.63545 42.723 8.92308 42.723 9.10368V15.1839H39.9509ZM32.5385 15.1839V4.34783H34.9691V7.9398H35.3106V15.1839H32.5385Z" fill="url(#paint3_linear_65_112)"/>
<path d="M45.3292 15.1839V0.735787H54.1678V3.46488H48.0611V6.59532H52.9626V9.32442H48.0611V15.1839H45.3292Z" fill="url(#paint4_linear_65_112)"/>
<path d="M56.1821 2.84281V0.434784H58.914V2.84281H56.1821ZM56.1821 15.1839V4.34783H58.914V15.1839H56.1821Z" fill="url(#paint5_linear_65_112)"/>
<path d="M61.9251 15.1839V4.34783H64.3357V6.99666L64.0745 6.65552C64.2151 6.28094 64.4026 5.9398 64.637 5.63211C64.8713 5.32442 65.1593 5.07023 65.5007 4.86957C65.7619 4.70903 66.0465 4.58529 66.3545 4.49833C66.6625 4.40468 66.9805 4.34783 67.3086 4.32776C67.6367 4.301 67.9648 4.30769 68.2929 4.34783V6.89632C67.9916 6.80268 67.6401 6.77258 67.2383 6.80602C66.8433 6.83278 66.485 6.92308 66.1636 7.07692C65.8422 7.22408 65.5711 7.42141 65.3501 7.6689C65.1291 7.9097 64.9617 8.19732 64.8479 8.53177C64.7341 8.85953 64.6772 9.23077 64.6772 9.64549V15.1839H61.9251Z" fill="url(#paint6_linear_65_112)"/>
<path d="M75.0493 15.485C73.9378 15.485 72.9569 15.2475 72.1065 14.7726C71.2628 14.291 70.5999 13.6321 70.1178 12.796C69.6424 11.9532 69.4047 10.99 69.4047 9.90636C69.4047 8.72241 69.639 7.69231 70.1077 6.81605C70.5765 5.9398 71.2226 5.26087 72.0462 4.77927C72.8698 4.29097 73.8173 4.04682 74.8886 4.04682C76.0269 4.04682 76.9945 4.31438 77.7913 4.8495C78.5881 5.38462 79.1774 6.13713 79.559 7.10702C79.9407 8.07692 80.0746 9.21739 79.9608 10.5284H77.259V9.52509C77.259 8.42141 77.0815 7.62876 76.7266 7.14716C76.3785 6.65886 75.806 6.41472 75.0091 6.41472C74.0784 6.41472 73.3921 6.699 72.9502 7.26756C72.5149 7.82943 72.2973 8.66221 72.2973 9.76589C72.2973 10.7759 72.5149 11.5585 72.9502 12.1137C73.3921 12.6622 74.0382 12.9365 74.8886 12.9365C75.4243 12.9365 75.883 12.8194 76.2646 12.5853C76.6463 12.3512 76.9376 12.0134 77.1384 11.5719L79.8704 12.3545C79.4619 13.3445 78.8158 14.1137 77.9319 14.6622C77.0547 15.2107 76.0939 15.485 75.0493 15.485ZM71.4536 10.5284V8.50167H78.645V10.5284H71.4536Z" fill="url(#paint7_linear_65_112)"/>
<defs>
<linearGradient id="paint0_linear_65_112" x1="-18" y1="7.77175" x2="12.3987" y2="63.7613" gradientUnits="userSpaceOnUse">
<stop stop-color="#FAB00C"/>
<stop offset="0.51752" stop-color="#FA705B"/>
<stop offset="1" stop-color="#FA0064"/>
</linearGradient>
<linearGradient id="paint1_linear_65_112" x1="-18" y1="7.77175" x2="12.3987" y2="63.7613" gradientUnits="userSpaceOnUse">
<stop stop-color="#FAB00C"/>
<stop offset="0.51752" stop-color="#FA705B"/>
<stop offset="1" stop-color="#FA0064"/>
</linearGradient>
<linearGradient id="paint2_linear_65_112" x1="-18" y1="7.77175" x2="12.3987" y2="63.7613" gradientUnits="userSpaceOnUse">
<stop stop-color="#FAB00C"/>
<stop offset="0.51752" stop-color="#FA705B"/>
<stop offset="1" stop-color="#FA0064"/>
</linearGradient>
<linearGradient id="paint3_linear_65_112" x1="-18" y1="7.77175" x2="12.3987" y2="63.7613" gradientUnits="userSpaceOnUse">
<stop stop-color="#FAB00C"/>
<stop offset="0.51752" stop-color="#FA705B"/>
<stop offset="1" stop-color="#FA0064"/>
</linearGradient>
<linearGradient id="paint4_linear_65_112" x1="-18" y1="7.77175" x2="12.3987" y2="63.7613" gradientUnits="userSpaceOnUse">
<stop stop-color="#FAB00C"/>
<stop offset="0.51752" stop-color="#FA705B"/>
<stop offset="1" stop-color="#FA0064"/>
</linearGradient>
<linearGradient id="paint5_linear_65_112" x1="-18" y1="7.77175" x2="12.3987" y2="63.7613" gradientUnits="userSpaceOnUse">
<stop stop-color="#FAB00C"/>
<stop offset="0.51752" stop-color="#FA705B"/>
<stop offset="1" stop-color="#FA0064"/>
</linearGradient>
<linearGradient id="paint6_linear_65_112" x1="-18" y1="7.77175" x2="12.3987" y2="63.7613" gradientUnits="userSpaceOnUse">
<stop stop-color="#FAB00C"/>
<stop offset="0.51752" stop-color="#FA705B"/>
<stop offset="1" stop-color="#FA0064"/>
</linearGradient>
<linearGradient id="paint7_linear_65_112" x1="-18" y1="7.77175" x2="12.3987" y2="63.7613" gradientUnits="userSpaceOnUse">
<stop stop-color="#FAB00C"/>
<stop offset="0.51752" stop-color="#FA705B"/>
<stop offset="1" stop-color="#FA0064"/>
</linearGradient>
</defs>
</svg>
